<svg height="512" viewBox="0 0 64 64" width="512" xmlns="http://www.w3.org/2000/svg"><g id="_08_Destination_Flag_Direction_Gps" data-name="08 Destination Flag, Direction, Gps"><path d="m56.08 24 3.85-9.63a1 1 0 0 0 -.1-.93 1 1 0 0 0 -.83-.44h-16a1 1 0 0 0 -1 1v16a5 5 0 0 0 5 5h12a1 1 0 0 0 .83-.44 1 1 0 0 0 .1-.93z" fill="#e7343f"/><path d="m44 13v16a1 1 0 0 1 -1 1h-14a1 1 0 0 1 -1-1v-20a1 1 0 0 1 1-1h10a5 5 0 0 1 5 5z" fill="#ff4a4a"/><path d="m50 54c0 4.75-14.72 6-22.5 6s-22.5-1.25-22.5-6 14.72-6 22.5-6 22.5 1.25 22.5 6z" fill="#ffdb56"/><path d="m27.5 48c-.92 0-1.93 0-3 0 8 .29 19.5 1.76 19.5 6s-11.46 5.66-19.5 6h3c7.78 0 22.5-1.25 22.5-6s-14.72-6-22.5-6z" fill="#ffbc26"/><path d="m30 7v47a1 1 0 0 1 -1 1h-4a1 1 0 0 1 -1-1v-47a3 3 0 0 1 6 0z" fill="#546f7a"/><path d="m27 4a2.77 2.77 0 0 0 -1 .18 3 3 0 0 1 2 2.82v47a1 1 0 0 1 -1 1h2a1 1 0 0 0 1-1v-47a3 3 0 0 0 -3-3z" fill="#334347"/><path d="m22 53h10v2h-10z" fill="#546f7a"/></g></svg>