<svg height="512pt" viewBox="0 0 512 512" width="512pt" xmlns="http://www.w3.org/2000/svg"><path d="m512 256c0 95.535156-52.335938 178.847656-129.90625 222.820312v.015626c-37.21875 21.101562-80.257812 33.164062-126.09375 33.164062-33.4375 0-65.378906-6.417969-94.652344-18.078125h-.03125c-94.523437-37.636719-161.316406-129.96875-161.316406-237.921875 0-71.746094 29.511719-136.613281 77.070312-183.078125 46.144532-45.113281 109.289063-72.921875 178.929688-72.921875 29.238281 0 57.335938 4.90625 83.503906 13.929688 100.378906 34.625 172.496094 129.921874 172.496094 242.070312zm0 0" fill="#77c6cf"/><path d="m310.023438 506.273438c-17.417969 3.75-35.496094 5.726562-54.023438 5.726562-33.4375 0-65.378906-6.417969-94.652344-18.078125h-.03125c-94.523437-37.636719-161.316406-129.96875-161.316406-237.921875 0-71.746094 29.511719-136.613281 77.070312-183.078125 46.144532-45.113281 109.289063-72.921875 178.929688-72.921875 18.527344 0 36.589844 1.960938 53.992188 5.726562-48.007813 10.308594-91.015626 34.097657-124.871094 67.195313-47.558594 46.464844-77.074219 111.332031-77.074219 183.078125 0 107.953125 66.796875 200.285156 161.320313 237.921875h.03125c13.042968 5.195313 26.617187 9.359375 40.625 12.351563zm0 0" fill="#3c9ba5"/><path d="m512 256c0 95.535156-52.335938 178.847656-129.90625 222.820312-44.613281-90.871093-148.386719-10.4375-160.449219-123.808593-12.046875-113.390625 124.246094-73.582031 164.050781-113.390625 39.808594-39.804688 0-101.324219-33.773437-67.550782-33.777344 33.777344-84.4375 24.128907-72.375-9.648437 12.0625-33.773437 69.960937-48.25 28.304687-62.726563-41.671874-14.457031 0-56.128906 31.621094-87.75l.03125-.015624c66.570313 22.964843 120.707032 72.617187 149.609375 136.164062-31.042969 0-59.992187 52.929688-31.042969 81.878906 15.714844 15.714844 35.242188 20.007813 53.914063 21.40625.015625.867188.015625 1.753906.015625 2.621094zm0 0" fill="#fce065"/><path d="m161.347656 493.921875h-.03125c-94.523437-37.636719-161.316406-129.96875-161.316406-237.921875 0-71.746094 29.511719-136.613281 77.070312-183.078125 69.804688 16.726563 81.867188 64.960937 36.027344 81.847656-45.175781 16.648438-48.167968 47.351563-2.074218 62.082031.691406.226563 1.367187.433594 2.074218.644532 32.601563 9.777344 20.042969 40.5-4.195312 59.398437-11.613282 9.054688-25.925782 15.390625-39.230469 15.390625-41.011719 0-7.234375 83.230469 42.222656 83.230469s49.453125 118.40625 49.453125 118.40625zm0 0" fill="#fce065"/><path d="m161.347656 493.921875h-.03125c-94.523437-37.636719-161.316406-129.96875-161.316406-237.921875 0-71.746094 29.511719-136.613281 77.070312-183.078125 69.804688 16.726563 81.867188 64.960937 36.027344 81.847656-45.175781 16.648438-48.167968 47.351563-2.074218 62.082031-1.960938 12.769532-2.976563 25.832032-2.976563 39.148438 0 7.027344.289063 13.992188.851563 20.894531-11.609376 9.054688-25.925782 15.390625-39.226563 15.390625-41.011719 0-7.238281 83.230469 42.21875 83.230469s49.457031 118.40625 49.457031 118.40625zm0 0" fill="#f9a53f"/><g fill="#445166"><path d="m88.695312 252.191406c-3.082031 0-6.007812-1.832031-7.25-4.863281-5.042968-12.28125-7.359374-20.035156-7.453124-20.363281-1.234376-4.148438 1.132812-8.507813 5.285156-9.738282 4.144531-1.230468 8.507812 1.132813 9.738281 5.28125.023437.070313 2.214844 7.394532 6.929687 18.867188 1.640626 4.003906-.269531 8.582031-4.273437 10.226562-.976563.402344-1.984375.589844-2.976563.589844zm0 0"/><path d="m317.195312 416.535156c-4.097656 0-7.542968-3.175781-7.816406-7.320312-.28125-4.320313 2.988282-8.050782 7.308594-8.335938 13.359375-.875 27.277344-2.976562 41.363281-6.242187 4.214844-.976563 8.425781 1.648437 9.402344 5.863281.980469 4.21875-1.648437 8.429688-5.863281 9.40625-14.910156 3.457031-29.671875 5.679688-43.875 6.613281-.175782.011719-.347656.015625-.519532.015625zm-43.027343-1.304687c-.34375 0-.691407-.023438-1.039063-.070313-14.925781-1.976562-29.550781-5.5625-43.464844-10.660156-4.0625-1.488281-6.152343-5.992188-4.664062-10.054688s5.988281-6.152343 10.054688-4.664062c12.839843 4.703125 26.339843 8.015625 40.128906 9.839844 4.292968.570312 7.308594 4.507812 6.742187 8.796875-.523437 3.945312-3.890625 6.8125-7.757812 6.8125zm-80.371094-29.398438c-1.445313 0-2.902344-.394531-4.210937-1.230469-12.199219-7.78125-23.992188-17.054687-35.042969-27.558593-3.140625-2.980469-3.265625-7.941407-.285157-11.078125 2.980469-3.136719 7.941407-3.265625 11.078126-.285156 10.328124 9.8125 21.324218 18.464843 32.679687 25.710937 3.648437 2.328125 4.722656 7.171875 2.394531 10.820313-1.496094 2.34375-4.027344 3.621093-6.613281 3.621093zm-62.539063-58.816406c-2.367187 0-4.703124-1.0625-6.246093-3.089844-8.683594-11.414062-16.847657-23.839843-24.265625-36.9375-2.132813-3.769531-.808594-8.550781 2.957031-10.683593 3.769531-2.132813 8.550781-.808594 10.683594 2.957031 7.070312 12.488281 14.84375 24.320312 23.097656 35.175781 2.621094 3.441406 1.953125 8.359375-1.492187 10.980469-1.414063 1.078125-3.082032 1.597656-4.734376 1.597656zm0 0"/><path d="m401.136719 397.574219c-3.183594 0-6.171875-1.949219-7.347657-5.105469-1.507812-4.054688.554688-8.566406 4.613282-10.078125 6.246094-2.324219 12.644531-4.894531 19.011718-7.648437 3.972657-1.714844 8.585938.113281 10.300782 4.085937 1.71875 3.972656-.109375 8.585937-4.085938 10.300781-6.617187 2.859375-13.265625 5.535156-19.761718 7.953125-.902344.335938-1.824219.492188-2.730469.492188zm0 0"/></g><path d="m156.613281 83.523438c-14.929687-83.5000005-135.289062-83.5000005-150.222656 0-1.328125 7.433593-2.023437 15.085937-2.023437 22.902343 0 52.839844 31.710937 98.269531 77.136718 118.3125 45.425782-20.042969 77.132813-65.472656 77.132813-118.3125 0-7.816406-.691407-15.46875-2.023438-22.902343zm0 0" fill="#ff616d"/><path d="m81.503906 224.738281c-45.425781-20.046875-77.136718-65.472656-77.136718-118.3125 0-7.816406.695312-15.46875 2.027343-22.902343 7.375-41.246094 40.464844-62.113282 73.871094-62.605469-25.96875.644531-60.105469 21.503906-65.84375 62.605469-1.035156 7.433593-1.578125 15.085937-1.578125 22.902343 0 52.839844 33.21875 98.265625 68.660156 118.3125zm0 0" fill="#e53467"/><path d="m134.371094 97.527344c0 29.199218-23.667969 52.867187-52.867188 52.867187-29.199218 0-52.871094-23.667969-52.871094-52.867187 0-29.199219 23.671876-52.871094 52.871094-52.871094 29.199219 0 52.867188 23.671875 52.867188 52.871094zm0 0" fill="#e53467"/><path d="m123.039062 97.523438c0 21.332031-16.082031 38.910156-36.78125 41.265624-1.558593.179688-3.144531.273438-4.753906.273438-22.9375 0-41.535156-18.597656-41.535156-41.539062 0-22.9375 18.597656-41.53125 41.535156-41.53125 1.609375 0 3.195313.09375 4.753906.273437 20.699219 2.355469 36.78125 19.929687 36.78125 41.257813zm0 0" fill="#e5e5e5"/><path d="m123.039062 97.523438c0 21.332031-16.082031 38.910156-36.78125 41.265624-20.699218-2.355468-36.785156-19.933593-36.785156-41.265624 0-21.328126 16.085938-38.902344 36.785156-41.257813 20.699219 2.355469 36.78125 19.929687 36.78125 41.257813zm0 0" fill="#fcfcfc"/><path d="m495.632812 240.722656c-14.929687-83.5-135.289062-83.5-150.222656 0-1.328125 7.433594-2.023437 15.085938-2.023437 22.902344 0 52.839844 31.710937 98.265625 77.136719 118.3125 45.421874-20.046875 77.132812-65.472656 77.132812-118.3125 0-7.816406-.695312-15.46875-2.023438-22.902344zm0 0" fill="#ff616d"/><path d="m420.523438 381.9375c-45.425782-20.046875-77.136719-65.472656-77.136719-118.3125 0-7.816406.695312-15.46875 2.027343-22.902344 7.375-41.246094 40.464844-62.113281 73.871094-62.605468-25.972656.644531-60.105468 21.503906-65.84375 62.605468-1.035156 7.433594-1.578125 15.085938-1.578125 22.902344 0 52.839844 33.21875 98.265625 68.660157 118.3125zm0 0" fill="#e53467"/><path d="m473.390625 254.722656c0 29.199219-23.667969 52.871094-52.867187 52.871094-29.199219 0-52.871094-23.671875-52.871094-52.871094 0-29.199218 23.671875-52.867187 52.871094-52.867187 29.199218 0 52.867187 23.667969 52.867187 52.867187zm0 0" fill="#e53467"/><path d="m462.054688 254.722656c0 21.328125-16.078126 38.910156-36.777344 41.265625-1.5625.179688-3.144532.273438-4.753906.273438-22.9375 0-41.539063-18.601563-41.539063-41.539063s18.601563-41.53125 41.539063-41.53125c1.609374 0 3.191406.089844 4.753906.269532 20.699218 2.355468 36.777344 19.933593 36.777344 41.261718zm0 0" fill="#e5e5e5"/><path d="m462.054688 254.722656c0 21.328125-16.078126 38.910156-36.777344 41.265625-20.703125-2.355469-36.785156-19.9375-36.785156-41.265625s16.082031-38.90625 36.785156-41.261718c20.699218 2.355468 36.777344 19.933593 36.777344 41.261718zm0 0" fill="#fcfcfc"/></svg>