<svg id="Layer_1" height="512" viewBox="0 0 512 512" width="512" xmlns="http://www.w3.org/2000/svg" data-name="Layer 1"><g><path d="m131.169 16h343.205v416.105h-343.205z" fill="#abc7f0"/><path d="m37.626 79.895h343.204v416.105h-343.204z" fill="#e4f0fd"/><path d="m131.169 16 249.662 63.895h-249.662z" fill="#92abd7" fill-rule="evenodd"/><path d="m86.788 117.334h52.697c5.773 0 10.461 4.687 10.461 10.461v38.413c0 5.773-4.687 10.461-10.461 10.461h-52.698c-5.773 0-10.46-4.687-10.46-10.46v-38.413c0-5.773 4.687-10.461 10.461-10.461z" fill="#38b4f2"/><path d="m86.788 117.334h35.925c5.773 0 10.461 4.687 10.461 10.461v38.413c0 5.773-4.687 10.461-10.461 10.461h-35.926c-5.773 0-10.46-4.687-10.46-10.46v-38.413c0-5.773 4.687-10.461 10.461-10.461z" fill="#57c6fd"/><path d="m176.896 172.899c-2.761 0-5-2.239-5-5s2.239-5 5-5h38.053c2.761 0 5 2.239 5 5s-2.239 5-5 5zm69.157 240.098c-2.761 0-5-2.239-5-5s2.239-5 5-5h96.076c2.761 0 5 2.239 5 5s-2.239 5-5 5zm-69.157 41.794c-2.761 0-5-2.239-5-5s2.239-5 5-5h165.233c2.761 0 5 2.239 5 5s-2.239 5-5 5zm0-20.897c-2.761 0-5-2.239-5-5s2.239-5 5-5h165.233c2.761 0 5 2.239 5 5s-2.239 5-5 5zm0-20.897c-2.761 0-5-2.239-5-5s2.239-5 5-5h38.053c2.761 0 5 2.239 5 5s-2.239 5-5 5zm69.157-52.17c-2.761 0-5-2.239-5-5s2.239-5 5-5h96.076c2.761 0 5 2.239 5 5s-2.239 5-5 5zm-69.157-41.794c-2.761 0-5-2.239-5-5s2.239-5 5-5h165.233c2.761 0 5 2.239 5 5s-2.239 5-5 5zm0 20.897c-2.761 0-5-2.239-5-5s2.239-5 5-5h165.233c2.761 0 5 2.239 5 5s-2.239 5-5 5zm0 20.897c-2.761 0-5-2.239-5-5s2.239-5 5-5h38.053c2.761 0 5 2.239 5 5s-2.239 5-5 5zm69.157-135.758c-2.761 0-5-2.239-5-5s2.239-5 5-5h96.076c2.761 0 5 2.239 5 5s-2.239 5-5 5zm-69.157 41.794c-2.761 0-5-2.239-5-5s2.239-5 5-5h165.233c2.761 0 5 2.239 5 5s-2.239 5-5 5zm0-20.897c-2.761 0-5-2.239-5-5s2.239-5 5-5h165.233c2.761 0 5 2.239 5 5s-2.239 5-5 5zm0-20.897c-2.761 0-5-2.239-5-5s2.239-5 5-5h38.053c2.761 0 5 2.239 5 5s-2.239 5-5 5zm69.157-52.17c-2.761 0-5-2.239-5-5s2.239-5 5-5h96.076c2.761 0 5 2.239 5 5s-2.239 5-5 5zm-69.157-41.794c-2.761 0-5-2.239-5-5s2.239-5 5-5h165.233c2.761 0 5 2.239 5 5s-2.239 5-5 5zm0 20.897c-2.761 0-5-2.239-5-5s2.239-5 5-5h165.233c2.761 0 5 2.239 5 5s-2.239 5-5 5z" fill="#4e5f7f" fill-rule="evenodd"/><path d="m86.788 211.298h52.697c5.773 0 10.461 4.687 10.461 10.461v38.413c0 5.773-4.687 10.461-10.461 10.461h-52.698c-5.773 0-10.46-4.687-10.46-10.46v-38.413c0-5.773 4.687-10.461 10.461-10.461z" fill="#24bf74"/><path d="m86.788 211.298h35.925c5.773 0 10.461 4.687 10.461 10.461v38.413c0 5.773-4.687 10.461-10.461 10.461h-35.926c-5.773 0-10.46-4.687-10.46-10.46v-38.413c0-5.773 4.687-10.461 10.461-10.461z" fill="#28d481"/><path d="m86.788 305.262h52.697c5.773 0 10.461 4.687 10.461 10.461v38.413c0 5.773-4.687 10.461-10.461 10.461h-52.698c-5.773 0-10.46-4.687-10.46-10.46v-38.413c0-5.773 4.687-10.461 10.461-10.461z" fill="#e33657"/><path d="m86.788 305.262h35.926c5.773 0 10.461 4.687 10.461 10.461v38.413c0 5.773-4.687 10.461-10.461 10.461h-35.926c-5.773 0-10.46-4.687-10.46-10.46v-38.413c0-5.773 4.687-10.461 10.461-10.461z" fill="#fd5959"/><path d="m86.788 399.226h52.697c5.773 0 10.461 4.687 10.461 10.461v38.413c0 5.773-4.687 10.461-10.461 10.461h-52.698c-5.773 0-10.46-4.687-10.46-10.46v-38.413c0-5.773 4.687-10.461 10.461-10.461z" fill="#fcbc40"/><path d="m86.788 399.226h35.925c5.773 0 10.461 4.687 10.461 10.461v38.413c0 5.773-4.687 10.461-10.461 10.461h-35.926c-5.773 0-10.46-4.687-10.46-10.46v-38.413c0-5.773 4.687-10.461 10.461-10.461z" fill="#fddd41"/><path d="m357.228 79.895h23.602v416.105h-23.602z" fill="#cadbfd"/><path d="m450.771 16h23.602v416.105h-23.602z" fill="#a2beef"/></g><path d="m347.13 407.998c0 2.761-2.242 5.003-5.012 5.003h-96.054c-2.769 0-5.011-2.242-5.011-5.003s2.242-4.998 5.011-4.998h96.054c2.769 0 5.012 2.229 5.012 4.998zm0 41.793c0 2.761-2.242 4.998-5.012 4.998h-165.203c-2.769 0-5.012-2.237-5.012-4.998s2.242-5.003 5.012-5.003h165.203c2.769 0 5.012 2.242 5.012 5.003zm0-20.903c0 2.761-2.242 5.003-5.012 5.003h-165.203c-2.769 0-5.012-2.242-5.012-5.003s2.242-4.998 5.012-4.998h165.203c2.769 0 5.012 2.242 5.012 4.998zm-175.227-20.89c0-2.769 2.242-4.998 5.012-4.998h38.026c2.77 0 5.012 2.229 5.012 4.998s-2.242 5.003-5.012 5.003h-38.026c-2.769 0-5.012-2.242-5.012-5.003zm-26.948 40.101c0 3.011-2.462 5.46-5.451 5.46h-52.708c-3.033 0-5.451-2.449-5.451-5.46v-38.408c0-3.011 2.418-5.46 5.451-5.46h52.708c2.989 0 5.451 2.449 5.451 5.46zm-5.451-53.869h-52.708c-8.528 0-15.474 6.928-15.474 15.461v38.408c0 8.533 6.946 15.461 15.474 15.461h52.708c8.484 0 15.43-6.928 15.43-15.461v-38.408c0-8.533-6.946-15.461-15.43-15.461zm207.626-38.399c0 2.761-2.242 4.998-5.012 4.998h-96.054c-2.769 0-5.011-2.238-5.011-4.998s2.242-4.998 5.011-4.998h96.054c2.769 0 5.012 2.229 5.012 4.998zm0-41.798c0 2.756-2.242 4.998-5.012 4.998h-165.203c-2.769 0-5.012-2.242-5.012-4.998s2.242-5.003 5.012-5.003h165.203c2.769 0 5.012 2.238 5.012 5.003zm0 20.899c0 2.761-2.242 4.998-5.012 4.998h-165.203c-2.769 0-5.012-2.238-5.012-4.998s2.242-5.003 5.012-5.003h165.203c2.769 0 5.012 2.242 5.012 5.003zm-175.227 20.899c0-2.769 2.242-4.998 5.012-4.998h38.026c2.77 0 5.012 2.229 5.012 4.998s-2.242 4.998-5.012 4.998h-38.026c-2.769 0-5.012-2.238-5.012-4.998zm-26.948-1.692c0 3.011-2.462 5.464-5.451 5.464h-52.708c-3.033 0-5.451-2.453-5.451-5.464v-38.417c0-3.012 2.418-5.46 5.451-5.46h52.708c2.989 0 5.451 2.449 5.451 5.46zm-5.451-53.878h-52.708c-8.528 0-15.474 6.942-15.474 15.461v38.417c0 8.524 6.946 15.461 15.474 15.461h52.708c8.484 0 15.43-6.937 15.43-15.461v-38.417c0-8.52-6.946-15.461-15.43-15.461zm207.626-80.188c0 2.756-2.242 4.998-5.012 4.998h-96.054c-2.769 0-5.011-2.242-5.011-4.998s2.242-5.003 5.011-5.003h96.054c2.769 0 5.012 2.242 5.012 5.003zm0 41.789c0 2.761-2.242 4.998-5.012 4.998h-165.203c-2.769 0-5.012-2.238-5.012-4.998s2.242-5.003 5.012-5.003h165.203c2.769 0 5.012 2.242 5.012 5.003zm0-20.89c0 2.761-2.242 5.003-5.012 5.003h-165.203c-2.769 0-5.012-2.242-5.012-5.003s2.242-4.998 5.012-4.998h165.203c2.769 0 5.012 2.229 5.012 4.998zm-175.227-20.899c0-2.761 2.242-5.003 5.012-5.003h38.026c2.77 0 5.012 2.242 5.012 5.003s-2.242 4.998-5.012 4.998h-38.026c-2.769 0-5.012-2.242-5.012-4.998zm-26.948 40.101c0 3.007-2.462 5.456-5.451 5.456h-52.708c-3.033 0-5.451-2.449-5.451-5.456v-38.412c0-3.012 2.418-5.46 5.451-5.46h52.708c2.989 0 5.451 2.448 5.451 5.46zm-5.451-53.873h-52.708c-8.528 0-15.474 6.932-15.474 15.461v38.412c0 8.528 6.946 15.457 15.474 15.457h52.708c8.484 0 15.43-6.928 15.43-15.457v-38.412c0-8.529-6.946-15.461-15.43-15.461zm207.626-38.4c0 2.761-2.242 5.003-5.012 5.003h-96.054c-2.769 0-5.011-2.242-5.011-5.003s2.242-4.998 5.011-4.998h96.054c2.769 0 5.012 2.238 5.012 4.998zm0-41.798c0 2.769-2.242 4.998-5.012 4.998h-165.203c-2.769 0-5.012-2.229-5.012-4.998s2.242-5.003 5.012-5.003h165.203c2.769 0 5.012 2.242 5.012 5.003zm0 20.899c0 2.761-2.242 4.998-5.012 4.998h-165.203c-2.769 0-5.012-2.238-5.012-4.998s2.242-4.998 5.012-4.998h165.203c2.769 0 5.012 2.237 5.012 4.998zm-175.227 20.899c0-2.761 2.242-4.998 5.012-4.998h38.026c2.77 0 5.012 2.238 5.012 4.998s-2.242 5.003-5.012 5.003h-38.026c-2.769 0-5.012-2.242-5.012-5.003zm-26.948-1.688c0 3.011-2.462 5.46-5.451 5.46h-52.708c-3.033 0-5.451-2.449-5.451-5.46v-38.422c0-3.007 2.418-5.46 5.451-5.46h52.708c2.989 0 5.451 2.453 5.451 5.46zm-5.451-53.882h-52.708c-8.528 0-15.474 6.941-15.474 15.461v38.422c0 8.52 6.946 15.461 15.474 15.461h52.708c8.484 0 15.43-6.941 15.43-15.461v-38.422c0-8.52-6.946-15.461-15.43-15.461zm329.88 314.768v-406.099h-298.536l211.23 54.049c.088.031.176.079.308.11.176.062.352.119.528.198.132.061.264.141.396.22.132.084.264.163.44.264.132.088.22.198.351.308.132.101.264.202.352.321.132.118.22.237.308.369s.176.25.264.391c.088.127.176.268.22.409.088.149.176.29.22.448.088.149.132.312.176.47.044.149.044.303.088.461.044.172.044.361.088.541v347.54h83.569zm-93.548 63.901v-406.112h-333.22v406.112zm-239.672-468.562 204.944 52.454h-204.944zm338.188-11.439h-343.2c-.088 0-.22.031-.308.031-.22.018-.396.031-.572.057-.132.031-.308.07-.484.123-.132.04-.264.079-.44.141-.132.057-.308.136-.484.22-.088.066-.22.127-.351.207-.132.092-.308.202-.44.303-.088.097-.22.18-.352.29-.088.11-.22.237-.308.356-.132.123-.22.233-.308.365-.088.136-.176.29-.264.439-.088.128-.176.259-.22.4-.088.167-.132.338-.176.519-.044.11-.088.198-.132.307v.11c-.044.172-.088.343-.088.51-.044.172-.044.343-.044.51v59.004h-88.577c-2.769 0-4.967 2.238-4.967 4.998v416.109c0 2.761 2.198 5.003 4.967 5.003h343.2c2.769 0 5.012-2.242 5.012-5.003v-58.898h88.536c2.77 0 5.011-2.229 5.011-4.998v-416.104c0-2.756-2.242-4.998-5.011-4.998z" fill="#242222" fill-rule="evenodd"/></svg>