<svg id="Layer_1" height="512" viewBox="0 0 512 512" width="512" xmlns="http://www.w3.org/2000/svg"><g><g><path d="m470.627 238.627-38.627-38.627h-96v176c0 17.673 14.327 32 32 32v16h112v-162.745c0-8.487-3.371-16.626-9.373-22.628z" fill="#f0915a"/></g><g><path d="m80 200-38.627 38.627c-6.002 6.002-9.373 14.141-9.373 22.628v162.745h112v-16c17.673 0 32-14.327 32-32v-176z" fill="#f0915a"/></g><g><path d="m224 352h-160c-8.837 0-16-7.163-16-16v-256c0-8.837 7.163-16 16-16h160c17.673 0 32 14.327 32 32v288c0-17.673-14.327-32-32-32z" fill="#d7e6f0"/></g><g><g><path d="m136 160h-48c-4.418 0-8-3.582-8-8v-48c0-4.418 3.582-8 8-8h48c4.418 0 8 3.582 8 8v48c0 4.418-3.582 8-8 8z" fill="#5ad7ff"/></g><g><path d="m184 160h-16c-4.418 0-8-3.582-8-8 0-4.418 3.582-8 8-8h16c4.418 0 8 3.582 8 8 0 4.418-3.582 8-8 8z" fill="#a5c3dc"/></g><g><path d="m216 128h-48c-4.418 0-8-3.582-8-8 0-4.418 3.582-8 8-8h48c4.418 0 8 3.582 8 8 0 4.418-3.582 8-8 8z" fill="#a5c3dc"/></g></g><g><g><path d="m136 240h-48c-4.418 0-8-3.582-8-8v-48c0-4.418 3.582-8 8-8h48c4.418 0 8 3.582 8 8v48c0 4.418-3.582 8-8 8z" fill="#faaa23"/></g><g><path d="m184 240h-16c-4.418 0-8-3.582-8-8 0-4.418 3.582-8 8-8h16c4.418 0 8 3.582 8 8 0 4.418-3.582 8-8 8z" fill="#a5c3dc"/></g><g><path d="m216 208h-48c-4.418 0-8-3.582-8-8 0-4.418 3.582-8 8-8h48c4.418 0 8 3.582 8 8 0 4.418-3.582 8-8 8z" fill="#a5c3dc"/></g></g><g><g><path d="m136 320h-48c-4.418 0-8-3.582-8-8v-48c0-4.418 3.582-8 8-8h48c4.418 0 8 3.582 8 8v48c0 4.418-3.582 8-8 8z" fill="#5ad7ff"/></g><g><path d="m184 320h-16c-4.418 0-8-3.582-8-8 0-4.418 3.582-8 8-8h16c4.418 0 8 3.582 8 8 0 4.418-3.582 8-8 8z" fill="#a5c3dc"/></g><g><path d="m216 288h-48c-4.418 0-8-3.582-8-8 0-4.418 3.582-8 8-8h48c4.418 0 8 3.582 8 8 0 4.418-3.582 8-8 8z" fill="#a5c3dc"/></g></g><g><path d="m288 352h160c8.837 0 16-7.163 16-16v-256c0-8.837-7.163-16-16-16h-160c-17.673 0-32 14.327-32 32v288c0-17.673 14.327-32 32-32z" fill="#a5c3dc"/></g><g><g><path d="m344 160h-48c-4.418 0-8-3.582-8-8v-48c0-4.418 3.582-8 8-8h48c4.418 0 8 3.582 8 8v48c0 4.418-3.582 8-8 8z" fill="#f5871e"/></g><g><path d="m392 160h-16c-4.418 0-8-3.582-8-8 0-4.418 3.582-8 8-8h16c4.418 0 8 3.582 8 8 0 4.418-3.582 8-8 8z" fill="#87a5be"/></g><g><path d="m424 128h-48c-4.418 0-8-3.582-8-8 0-4.418 3.582-8 8-8h48c4.418 0 8 3.582 8 8 0 4.418-3.582 8-8 8z" fill="#87a5be"/></g></g><g><g><path d="m344 240h-48c-4.418 0-8-3.582-8-8v-48c0-4.418 3.582-8 8-8h48c4.418 0 8 3.582 8 8v48c0 4.418-3.582 8-8 8z" fill="#2387c3"/></g><g><path d="m392 240h-16c-4.418 0-8-3.582-8-8 0-4.418 3.582-8 8-8h16c4.418 0 8 3.582 8 8 0 4.418-3.582 8-8 8z" fill="#87a5be"/></g><g><path d="m424 208h-48c-4.418 0-8-3.582-8-8 0-4.418 3.582-8 8-8h48c4.418 0 8 3.582 8 8 0 4.418-3.582 8-8 8z" fill="#87a5be"/></g></g><g><g><path d="m344 320h-48c-4.418 0-8-3.582-8-8v-48c0-4.418 3.582-8 8-8h48c4.418 0 8 3.582 8 8v48c0 4.418-3.582 8-8 8z" fill="#f5871e"/></g><g><path d="m392 320h-16c-4.418 0-8-3.582-8-8 0-4.418 3.582-8 8-8h16c4.418 0 8 3.582 8 8 0 4.418-3.582 8-8 8z" fill="#87a5be"/></g><g><path d="m424 288h-48c-4.418 0-8-3.582-8-8 0-4.418 3.582-8 8-8h48c4.418 0 8 3.582 8 8 0 4.418-3.582 8-8 8z" fill="#87a5be"/></g></g><g><path d="m32 424h112c8.837 0 16 7.163 16 16v8h-144v-8c0-8.837 7.163-16 16-16z" fill="#555a6e"/></g><g><path d="m32 424h56v24h-72v-8c0-8.837 7.163-16 16-16z" fill="#463c4b"/></g><g><path d="m100.038 260.038-.725-.725c-6.248-6.248-16.379-6.248-22.627 0l-40 40c-3.001 3.001-4.686 7.07-4.686 11.314v97.373c30.928 0 56-25.072 56-56v-34.667l12.039-12.039c12.497-12.497 12.497-32.759-.001-45.256z" fill="#fab991"/></g><g><path d="m74.667 261.333 2.02 2.02c6.248 6.248 6.248 16.379 0 22.627l-1.696 1.696c-3.124 3.124-8.19 3.124-11.314 0l-7.677-7.676z" fill="#f0915a"/></g><g><path d="m480 424h-112c-8.837 0-16 7.163-16 16v8h144v-8c0-8.837-7.163-16-16-16z" fill="#555a6e"/></g><g><path d="m480 424h-56v24h72v-8c0-8.837-7.163-16-16-16z" fill="#463c4b"/></g><g><path d="m411.962 260.038.725-.725c6.248-6.248 16.379-6.248 22.627 0l40 40c3.001 3.001 4.686 7.07 4.686 11.314v97.373c-30.928 0-56-25.072-56-56v-34.667l-12.039-12.039c-12.497-12.497-12.497-32.759.001-45.256z" fill="#fab991"/></g><g><path d="m437.333 261.333-2.02 2.02c-6.248 6.248-6.248 16.379 0 22.627l1.696 1.696c3.124 3.124 8.19 3.124 11.314 0l7.677-7.676z" fill="#f0915a"/></g></g></svg>