<svg id="Layer_1" height="512" viewBox="0 0 512 512" width="512" xmlns="http://www.w3.org/2000/svg" data-name="Layer 1"><path d="m131.169 16h343.205v416.105h-343.205z" fill="#abc7f0"/><path d="m37.626 79.895h343.204v416.105h-343.204z" fill="#e4f0fd"/><path d="m131.169 16 249.662 63.895h-249.662z" fill="#92abd7" fill-rule="evenodd"/><path d="m86.788 117.334h52.698c5.773 0 10.461 4.687 10.461 10.461v38.413c0 5.773-4.687 10.461-10.461 10.461h-52.698c-5.773 0-10.46-4.687-10.46-10.46v-38.413c0-5.773 4.687-10.461 10.461-10.461z" fill="#38b4f2"/><path d="m86.788 117.334h35.925c5.773 0 10.461 4.687 10.461 10.461v38.413c0 5.773-4.687 10.461-10.461 10.461h-35.926c-5.773 0-10.46-4.687-10.46-10.46v-38.413c0-5.773 4.687-10.461 10.461-10.461z" fill="#57c6fd"/><path d="m176.896 172.899c-2.761 0-5-2.239-5-5s2.239-5 5-5h38.053c2.761 0 5 2.239 5 5s-2.239 5-5 5zm69.157 240.098c-2.761 0-5-2.239-5-5s2.239-5 5-5h96.076c2.761 0 5 2.239 5 5s-2.239 5-5 5zm-69.157 41.794c-2.761 0-5-2.239-5-5s2.239-5 5-5h165.233c2.761 0 5 2.239 5 5s-2.239 5-5 5zm0-20.897c-2.761 0-5-2.239-5-5s2.239-5 5-5h165.233c2.761 0 5 2.239 5 5s-2.239 5-5 5zm0-20.897c-2.761 0-5-2.239-5-5s2.239-5 5-5h38.053c2.761 0 5 2.239 5 5s-2.239 5-5 5zm69.157-52.17c-2.761 0-5-2.239-5-5s2.239-5 5-5h96.076c2.761 0 5 2.239 5 5s-2.239 5-5 5zm-69.157-41.794c-2.761 0-5-2.239-5-5s2.239-5 5-5h165.233c2.761 0 5 2.239 5 5s-2.239 5-5 5zm0 20.897c-2.761 0-5-2.239-5-5s2.239-5 5-5h165.233c2.761 0 5 2.239 5 5s-2.239 5-5 5zm0 20.897c-2.761 0-5-2.239-5-5s2.239-5 5-5h38.053c2.761 0 5 2.239 5 5s-2.239 5-5 5zm69.157-135.758c-2.761 0-5-2.239-5-5s2.239-5 5-5h96.076c2.761 0 5 2.239 5 5s-2.239 5-5 5zm-69.157 41.794c-2.761 0-5-2.239-5-5s2.239-5 5-5h165.233c2.761 0 5 2.239 5 5s-2.239 5-5 5zm0-20.897c-2.761 0-5-2.239-5-5s2.239-5 5-5h165.233c2.761 0 5 2.239 5 5s-2.239 5-5 5zm0-20.897c-2.761 0-5-2.239-5-5s2.239-5 5-5h38.053c2.761 0 5 2.239 5 5s-2.239 5-5 5zm69.157-52.17c-2.761 0-5-2.239-5-5s2.239-5 5-5h96.076c2.761 0 5 2.239 5 5s-2.239 5-5 5zm-69.157-41.794c-2.761 0-5-2.239-5-5s2.239-5 5-5h165.233c2.761 0 5 2.239 5 5s-2.239 5-5 5zm0 20.897c-2.761 0-5-2.239-5-5s2.239-5 5-5h165.233c2.761 0 5 2.239 5 5s-2.239 5-5 5z" fill="#4e5f7f" fill-rule="evenodd"/><path d="m86.788 211.298h52.698c5.773 0 10.461 4.687 10.461 10.461v38.413c0 5.773-4.687 10.461-10.461 10.461h-52.698c-5.773 0-10.46-4.687-10.46-10.46v-38.413c0-5.773 4.687-10.461 10.461-10.461z" fill="#24bf74"/><path d="m86.788 211.298h35.925c5.773 0 10.461 4.687 10.461 10.461v38.413c0 5.773-4.687 10.461-10.461 10.461h-35.926c-5.773 0-10.46-4.687-10.46-10.46v-38.413c0-5.773 4.687-10.461 10.461-10.461z" fill="#28d481"/><path d="m86.788 305.262h52.697c5.773 0 10.461 4.687 10.461 10.461v38.413c0 5.773-4.687 10.461-10.461 10.461h-52.698c-5.773 0-10.46-4.687-10.46-10.46v-38.413c0-5.773 4.687-10.461 10.461-10.461z" fill="#e33657"/><path d="m86.788 305.262h35.925c5.773 0 10.461 4.687 10.461 10.461v38.413c0 5.773-4.687 10.461-10.461 10.461h-35.926c-5.773 0-10.46-4.687-10.46-10.46v-38.413c0-5.773 4.687-10.461 10.461-10.461z" fill="#fd5959"/><path d="m86.788 399.226h52.698c5.773 0 10.461 4.687 10.461 10.461v38.413c0 5.773-4.687 10.461-10.461 10.461h-52.698c-5.773 0-10.46-4.687-10.46-10.46v-38.413c0-5.773 4.687-10.461 10.461-10.461z" fill="#fcbc40"/><path d="m86.788 399.226h35.925c5.773 0 10.461 4.687 10.461 10.461v38.413c0 5.773-4.687 10.461-10.461 10.461h-35.926c-5.773 0-10.46-4.687-10.46-10.46v-38.413c0-5.773 4.687-10.461 10.461-10.461z" fill="#fddd41"/><path d="m357.228 79.895h23.602v416.105h-23.602z" fill="#cadbfd"/><path d="m450.771 16h23.602v416.105h-23.602z" fill="#a2beef"/></svg>