<svg id="Layer_1" height="512" viewBox="0 0 100 100" width="512" xmlns="http://www.w3.org/2000/svg"><path d="m16.667 16.667h23.333v23.333h-23.333z" fill="#fff8e1"/><path d="m40 10h-23.333c-3.666 0-6.667 3-6.667 6.667v23.333c0 3.667 3.001 6.667 6.667 6.667h23.333c3.665 0 6.667-3 6.667-6.667v-23.333c0-3.667-3.002-6.667-6.667-6.667zm0 30h-23.333v-23.333h23.333z" fill="#ffc00e"/><path d="m16.667 60h23.333v23.331h-23.333z" fill="#f1f7e9"/><path d="m40 53.334h-23.333c-3.666 0-6.667 3-6.667 6.666v23.331c0 3.667 3.001 6.669 6.667 6.669h23.333c3.665 0 6.667-3.002 6.667-6.669v-23.331c0-3.666-3.002-6.666-6.667-6.666zm0 29.997h-23.333v-23.331h23.333z" fill="#7cb342"/><path d="m53.333 10h16.667v6.667h-16.667z" fill="#e53a34"/><path d="m53.333 36.667h23.334v6.668h-23.334z" fill="#2cabe1"/><path d="m53.333 23.332h36.667v6.668h-36.667z" fill="#2cabe1"/><path d="m53.333 53.334h36.667v6.666h-36.667z" fill="#e53a34"/><path d="m53.333 80h23.334v6.665h-23.334z" fill="#2cabe1"/><path d="m53.333 66.666h16.667v6.665h-16.667z" fill="#2cabe1"/><path d="m53.333 10h4v6.667h-4z" fill="#b62025"/><path d="m53.333 36.667h4v6.668h-4z" fill="#0077bd"/><path d="m53.333 23.332h4v6.668h-4z" fill="#0077bd"/><path d="m53.333 53.334h4v6.666h-4z" fill="#b62025"/><path d="m53.333 80h4v6.665h-4z" fill="#0077bd"/><path d="m53.333 66.666h4v6.665h-4z" fill="#0077bd"/><path d="m20.667 36v-19.333h-4v23.333h23.333v-4z" fill="#ffebb2"/><path d="m20.667 79.331v-19.333h-4v23.333h23.333v-4z" fill="#dbebc7"/></svg>