<svg id="Capa_1" enable-background="new 0 0 512 512" height="512" viewBox="0 0 512 512" width="512" xmlns="http://www.w3.org/2000/svg"><g><g><g><path d="m12.477 125.725-4.977 8.964v259.162c0 17.102 13.864 30.966 30.966 30.966h435.068c17.102 0 30.966-13.864 30.966-30.966v-259.162l-4.977-8.965h-487.046z" fill="#ddeafb"/></g></g><g><g><path d="m453.795 125.725v217.421c0 17.102-13.864 30.966-30.966 30.966h-415.329v19.739c0 17.102 13.864 30.966 30.966 30.966h435.068c17.102 0 30.966-13.864 30.966-30.966v-259.162l-4.977-8.965h-45.728z" fill="#cbe2ff"/></g></g><g><g><path d="m473.534 49.232h-435.068c-17.102 0-30.966 13.864-30.966 30.966v54.491h497v-54.491c0-17.102-13.864-30.966-30.966-30.966z" fill="#698ed5"/></g></g><g><g><path d="m473.534 49.232h-19.739v85.457h50.705v-54.491c0-17.102-13.864-30.966-30.966-30.966z" fill="#4073c8"/></g></g><g><g><path d="m285.898 438.301-37.409-37.409-23.01 23.01 37.409 37.409c1.953 1.953 5.118 1.953 7.071 0l15.939-15.939c1.952-1.953 1.952-5.119 0-7.071z" fill="#f6f1f1"/></g><g><path d="m279.027 431.43-9.068 9.068c-1.953 1.953-5.118 1.953-7.071 0l-27.002-27.002-10.406 10.406 37.409 37.409c1.953 1.953 5.118 1.953 7.071 0l15.939-15.939c1.953-1.953 1.953-5.118 0-7.071z" fill="#efe7e4"/></g><g><path d="m151.874 320.857 132.137 49.177c2.73 1.016 3.493 4.517 1.433 6.577l-84.246 84.246c-2.06 2.06-5.561 1.297-6.577-1.433l-49.177-132.137c-1.493-4.012 2.418-7.923 6.43-6.43z" fill="#f6f1f1"/></g><g><path d="m284.011 370.034-17.213-6.406-56.292 56.292c-2.06 2.06-5.561 1.297-6.577-1.433l-33.807-90.839-18.247-6.791c-4.012-1.493-7.923 2.418-6.43 6.43l49.177 132.137c1.016 2.73 4.517 3.493 6.577 1.433l84.246-84.246c2.059-2.06 1.297-5.561-1.434-6.577z" fill="#efe7e4"/></g></g><g><path d="m371.938 417.317h-96.417l-10.088-10.088 25.315-25.315c2.781-2.782 3.942-6.738 3.104-10.582-.838-3.843-3.539-6.956-7.224-8.327l-132.139-49.178c-4.638-1.727-9.697-.626-13.198 2.877-3.501 3.501-4.603 8.559-2.876 13.198l32.533 87.415h-132.482c-12.94 0-23.466-10.526-23.466-23.465v-161.792c0-4.143-3.357-7.5-7.5-7.5s-7.5 3.357-7.5 7.5v161.792c0 21.21 17.256 38.466 38.466 38.466h138.065l11.061 29.721c1.371 3.688 4.485 6.389 8.329 7.227 3.843.839 7.801-.323 10.58-3.104l25.315-25.314 25.77 25.77c2.437 2.436 5.637 3.652 8.837 3.652 3.201 0 6.402-1.218 8.839-3.653l15.941-15.94c4.872-4.874 4.871-12.804-.001-17.677 0 0 0 0-.001 0l-.68-.68h81.416c4.143 0 7.5-3.357 7.5-7.5s-3.357-7.503-7.499-7.503zm-105.514 36.922-29.304-29.304c-1.465-1.464-3.384-2.196-5.304-2.196-1.919 0-3.839.732-5.304 2.196l-26.764 26.764-45.37-121.908 121.907 45.371-26.764 26.764c-2.929 2.93-2.929 7.678.001 10.607l29.304 29.303z"/><path d="m473.534 41.732h-26.222c-4.143 0-7.5 3.357-7.5 7.5s3.357 7.5 7.5 7.5h26.222c12.939 0 23.466 10.526 23.466 23.466v46.991h-482v-46.991c0-12.939 10.526-23.466 23.466-23.466h374.159c4.143 0 7.5-3.357 7.5-7.5s-3.357-7.5-7.5-7.5h-374.159c-21.21 0-38.466 17.256-38.466 38.466v118.112c0 4.143 3.357 7.5 7.5 7.5s7.5-3.357 7.5-7.5v-56.12h482v251.662c0 12.939-10.526 23.466-23.466 23.466h-65.659c-4.143 0-7.5 3.357-7.5 7.5s3.357 7.5 7.5 7.5h65.659c21.21 0 38.466-17.256 38.466-38.466v-313.654c0-21.21-17.256-38.466-38.466-38.466z"/><path d="m49.698 91.961c0 7.673 6.22 13.893 13.892 13.893s13.892-6.22 13.892-13.893-6.22-13.892-13.892-13.892-13.892 6.219-13.892 13.892z"/><path d="m92.434 91.961c0 7.673 6.22 13.893 13.892 13.893s13.892-6.22 13.892-13.893-6.22-13.892-13.892-13.892-13.892 6.219-13.892 13.892z"/><path d="m135.17 91.961c0 7.673 6.22 13.893 13.892 13.893s13.892-6.22 13.892-13.893-6.22-13.892-13.892-13.892-13.892 6.219-13.892 13.892z"/><path d="m91.808 307.31h.043c3.17 0 6-1.994 7.064-4.982l18.578-52.132 17.752 52.037c1.032 3.025 3.87 5.064 7.067 5.078h.031c3.185 0 6.023-2.012 7.078-5.02l25.184-71.846c1.37-3.908-.688-8.188-4.598-9.559-3.906-1.37-8.188.688-9.559 4.598l-18.01 51.379-17.692-51.865c-2.006-6.591-12.072-6.652-14.163-.096l-18.604 52.205-17.696-51.497c-1.346-3.918-5.612-6.005-9.53-4.655-3.917 1.346-6.002 5.613-4.655 9.53l24.66 71.762c1.035 3.014 3.863 5.044 7.05 5.063z"/><path d="m230.575 307.31h.043c3.17 0 6-1.994 7.064-4.982l18.578-52.132 17.752 52.037c1.032 3.025 3.87 5.064 7.067 5.078h.031c3.185 0 6.023-2.012 7.078-5.02l25.184-71.846c1.37-3.908-.688-8.188-4.598-9.559-3.906-1.37-8.188.688-9.559 4.598l-18.01 51.379-17.692-51.865c-2.007-6.592-12.072-6.652-14.163-.096l-18.604 52.205-17.696-51.496c-1.346-3.918-5.614-6.005-9.53-4.655-3.917 1.346-6.002 5.613-4.655 9.53l24.66 71.762c1.036 3.013 3.864 5.043 7.05 5.062z"/><path d="m367.092 307.31h.042c3.17 0 6-1.994 7.064-4.982l18.578-52.132 17.752 52.037c1.032 3.025 3.87 5.064 7.067 5.078h.031c3.185 0 6.023-2.012 7.078-5.02l25.183-71.846c1.37-3.908-.688-8.188-4.598-9.559-3.907-1.37-8.188.688-9.559 4.598l-18.009 51.379-17.692-51.865c-2.005-6.591-12.073-6.652-14.163-.096l-18.604 52.205-17.697-51.496c-1.346-3.917-5.607-6.003-9.53-4.655-3.917 1.346-6.002 5.613-4.655 9.53l24.661 71.762c1.036 3.013 3.863 5.043 7.051 5.062z"/></g></g></svg>