<svg id="Layer_1" enable-background="new 0 0 66 66" height="512" viewBox="0 0 66 66" width="512" xmlns="http://www.w3.org/2000/svg"><g><path d="m2 60c0 2.21 1.79 4 4 4h54c2.21 0 4-1.79 4-4v-47.62h-62z" fill="#d7e6ef"/><path d="m60 2h-54c-2.21 0-4 1.79-4 4v6.38h62v-6.38c0-2.21-1.79-4-4-4z" fill="#44394a"/><path d="m8 18.38h50v25.61h-50z" fill="#5f6fe7"/><g fill="#f0a696"><circle cx="11.73" cy="7.19" r="2"/><circle cx="18.99" cy="7.19" r="2"/><circle cx="26.25" cy="7.19" r="2"/></g><circle cx="12" cy="54" fill="#2c92bf" r="4"/><g><path d="m30.58 53h-10.72c-.55 0-1-.45-1-1s.45-1 1-1h10.72c.55 0 1 .45 1 1s-.45 1-1 1z" fill="#a4c0d8"/></g><g><path d="m26.25 57h-6.39c-.55 0-1-.45-1-1s.45-1 1-1h6.39c.55 0 1 .45 1 1s-.45 1-1 1z" fill="#a4c0d8"/></g><circle cx="39.42" cy="54" fill="#ee6a51" r="4"/><path d="m13.61 50.34c.22.49.34 1.04.34 1.61 0 2.21-1.79 4-4 4-.57 0-1.12-.13-1.61-.34.62 1.41 2.03 2.39 3.66 2.39 2.21 0 4-1.79 4-4 0-1.63-.98-3.04-2.39-3.66z" fill="#1f81a3"/><path d="m41.03 50.34c.22.49.34 1.04.34 1.61 0 2.21-1.79 4-4 4-.57 0-1.12-.13-1.61-.34.62 1.41 2.02 2.39 3.66 2.39 2.21 0 4-1.79 4-4 0-1.63-.98-3.04-2.39-3.66z" fill="#e1533b"/><g><path d="m58 53h-10.72c-.55 0-1-.45-1-1s.45-1 1-1h10.72c.55 0 1 .45 1 1s-.45 1-1 1z" fill="#a4c0d8"/></g><g><path d="m53.67 57h-6.39c-.55 0-1-.45-1-1s.45-1 1-1h6.39c.55 0 1 .45 1 1s-.45 1-1 1z" fill="#a4c0d8"/></g><path d="m45.43 43.99c-3.82-2.92-4.54-13.18-9.6-13.18-5.05 0-5.78 10.26-9.6 13.18z" fill="#f8ce01"/><path d="m43.18 40.99h-1.44c-5.17 0-8.56-5.59-5.98-10.08.02-.03.04-.07.06-.1-5.03.03-5.76 10.26-9.58 13.18h19.19c-.89-.68-1.61-1.75-2.25-3z" fill="#f4b601"/><circle cx="48.85" cy="26.96" fill="#d7e6ef" r="4.31"/><path d="m50.71 23.09c.27.57.44 1.19.44 1.86 0 2.38-1.93 4.31-4.31 4.31-.67 0-1.3-.17-1.86-.44.7 1.44 2.16 2.45 3.87 2.45 2.38 0 4.31-1.93 4.31-4.31 0-1.71-1.01-3.17-2.45-3.87z" fill="#a4c0d8"/><path d="m12.37 5.3c.07.2.12.42.12.64 0 1.1-.9 2-2 2-.23 0-.44-.05-.64-.12.27.79 1.01 1.36 1.88 1.36 1.1 0 2-.9 2-2 0-.87-.57-1.61-1.36-1.88z" fill="#e08c7e"/><path d="m19.63 5.3c.07.2.12.42.12.64 0 1.1-.9 2-2 2-.23 0-.44-.05-.64-.12.27.79 1.01 1.36 1.88 1.36 1.1 0 2-.9 2-2 0-.87-.57-1.61-1.36-1.88z" fill="#e08c7e"/><path d="m26.89 5.3c.07.2.12.42.12.64 0 1.1-.9 2-2 2-.23 0-.44-.05-.64-.12.27.79 1.01 1.36 1.88 1.36 1.1 0 2-.9 2-2 0-.87-.57-1.61-1.36-1.88z" fill="#e08c7e"/><path d="m36.08 43.99c-5.59-4.27-6.65-19.28-14.04-19.28s-8.45 15.01-14.04 19.28z" fill="#f8ce01"/><path d="m33.56 40.99h-2.09c-8.24 0-13.29-9.29-8.57-16.04.03-.05.07-.09.1-.14-.31-.06-.62-.1-.95-.1-7.39 0-8.45 15.01-14.04 19.28h28.08c-.97-.73-1.79-1.78-2.53-3z" fill="#f4b601"/></g></svg>