<svg id="Capa_1" enable-background="new 0 0 512 512" height="512" viewBox="0 0 512 512" width="512" xmlns="http://www.w3.org/2000/svg"><g><g><g><g><path d="m5.127 124.901-5.127 9.235v266.983c0 17.618 14.282 31.9 31.9 31.9h448.2c17.618 0 31.9-14.282 31.9-31.9v-266.983l-5.127-9.235z" fill="#ddeafb"/></g></g><g><g><path d="m459.765 124.901v223.983c0 17.618-14.282 31.9-31.9 31.9h-427.865v20.335c0 17.618 14.282 31.9 31.9 31.9h448.2c17.618 0 31.9-14.282 31.9-31.9v-266.983l-5.127-9.235z" fill="#cbe2ff"/></g></g><g><g><path d="m480.1 46.1h-448.2c-17.618 0-31.9 14.282-31.9 31.9v56.136h512v-56.136c0-17.618-14.282-31.9-31.9-31.9z" fill="#698ed5"/></g></g><g><g><path d="m480.1 46.1h-20.335v88.036h52.235v-56.136c0-17.618-14.282-31.9-31.9-31.9z" fill="#4073c8"/></g></g><g><g><g><circle cx="57.783" cy="90.118" fill="#dd636e" r="14.312"/></g></g><g><g><circle cx="101.809" cy="90.118" fill="#ffe07d" r="14.312"/></g></g><g><g><circle cx="145.835" cy="90.118" fill="#86f1a7" r="14.312"/></g></g></g><g fill="#698ed5"><path d="m86.852 311.966h.044c3.266 0 6.181-2.054 7.278-5.133l19.139-53.706 18.287 53.607c1.063 3.117 3.987 5.217 7.281 5.231h.032c3.281 0 6.205-2.072 7.292-5.171l25.944-74.014c1.411-4.026-.709-8.436-4.736-9.847-4.024-1.411-8.436.708-9.847 4.736l-18.553 52.93-18.226-53.431c-2.066-6.79-12.436-6.853-14.591-.099l-19.166 53.781-18.23-53.05c-1.386-4.036-5.782-6.186-9.818-4.796-4.035 1.386-6.183 5.783-4.796 9.818l25.404 73.928c1.066 3.105 3.979 5.197 7.262 5.216z"/><path d="m229.808 311.966h.044c3.266 0 6.181-2.054 7.278-5.133l19.139-53.706 18.287 53.607c1.063 3.117 3.987 5.217 7.281 5.231h.032c3.281 0 6.205-2.072 7.292-5.171l25.944-74.014c1.411-4.026-.709-8.436-4.736-9.847-4.024-1.411-8.435.708-9.847 4.736l-18.553 52.93-18.226-53.431c-2.068-6.791-12.436-6.852-14.591-.099l-19.166 53.781-18.23-53.05c-1.386-4.036-5.784-6.186-9.818-4.796-4.035 1.386-6.183 5.783-4.796 9.818l25.404 73.928c1.066 3.105 3.979 5.197 7.262 5.216z"/><path d="m370.445 311.966h.043c3.266 0 6.181-2.054 7.278-5.133l19.139-53.706 18.287 53.607c1.063 3.117 3.987 5.217 7.281 5.231h.032c3.281 0 6.205-2.072 7.292-5.171l25.943-74.014c1.411-4.026-.709-8.436-4.736-9.847-4.025-1.411-8.435.708-9.847 4.736l-18.552 52.93-18.226-53.431c-2.066-6.79-12.437-6.853-14.591-.099l-19.166 53.781-18.231-53.05c-1.386-4.035-5.777-6.184-9.818-4.796-4.035 1.386-6.183 5.783-4.796 9.818l25.405 73.928c1.067 3.105 3.979 5.197 7.263 5.216z"/></g></g><g><g><path d="m285.898 441.426-37.409-37.409-23.01 23.01 37.409 37.409c1.953 1.953 5.118 1.953 7.071 0l15.939-15.939c1.952-1.953 1.952-5.118 0-7.071z" fill="#f6f1f1"/></g><g><path d="m279.027 434.555-9.068 9.068c-1.953 1.953-5.118 1.953-7.071 0l-27.002-27.002-10.406 10.406 37.409 37.409c1.953 1.953 5.118 1.953 7.071 0l15.939-15.939c1.953-1.953 1.953-5.118 0-7.071z" fill="#efe7e4"/></g><g><path d="m151.874 323.982 132.137 49.177c2.73 1.016 1.836 4.503-.224 6.563l-82.279 82.001c-2.06 2.06-5.47 1.989-6.486-.741l-47.533-129.441c-1.493-4.012.373-9.052 4.385-7.559z" fill="#f6f1f1"/></g><g><path d="m284.011 373.159-17.213-6.406-56.292 56.292c-2.06 2.06-5.561 1.297-6.577-1.433l-33.807-90.839-18.247-6.791c-4.012-1.493-7.923 2.418-6.43 6.43l49.177 132.137c1.016 2.73 4.517 3.493 6.577 1.433l84.246-84.246c2.059-2.06 1.297-5.561-1.434-6.577z" fill="#efe7e4"/></g></g></g></svg>